<svg height="511.99999pt" viewBox="1 1 511.99999 511.99999" width="511.99999pt" xmlns="http://www.w3.org/2000/svg"><g fill="#bddbff"><path d="m464 64h-64v32c0 8.835938-7.164062 16-16 16h-32c-8.835938 0-16-7.164062-16-16v-32h-160v32c0 8.835938-7.164062 16-16 16h-32c-8.835938 0-16-7.164062-16-16v-32h-64c-17.652344.054688-31.949219 14.347656-32 32v80h480v-80c-.054688-17.652344-14.347656-31.945312-32-32zm0 0"/><path d="m160 272c0 17.671875-14.328125 32-32 32s-32-14.328125-32-32 14.328125-32 32-32 32 14.328125 32 32zm0 0"/><path d="m416 272c0 17.671875-14.328125 32-32 32s-32-14.328125-32-32 14.328125-32 32-32 32 14.328125 32 32zm0 0"/><path d="m288 272c0 17.671875-14.328125 32-32 32s-32-14.328125-32-32 14.328125-32 32-32 32 14.328125 32 32zm0 0"/><path d="m160 400c0 17.671875-14.328125 32-32 32s-32-14.328125-32-32 14.328125-32 32-32 32 14.328125 32 32zm0 0"/><path d="m416 400c0 17.671875-14.328125 32-32 32s-32-14.328125-32-32 14.328125-32 32-32 32 14.328125 32 32zm0 0"/><path d="m288 400c0 17.671875-14.328125 32-32 32s-32-14.328125-32-32 14.328125-32 32-32 32 14.328125 32 32zm0 0"/></g><path d="m464 48h-48v-16c0-17.671875-14.328125-32-32-32h-32c-17.671875 0-32 14.328125-32 32v16h-128v-16c0-17.671875-14.328125-32-32-32h-32c-17.671875 0-32 14.328125-32 32v16h-48c-26.507812 0-48 21.488281-48 48v368c0 26.507812 21.492188 48 48 48h416c26.507812 0 48-21.492188 48-48v-368c0-26.511719-21.492188-48-48-48zm-112-16h32v64h-32zm-224 0h32v64h-32zm-80 48h48v16c0 17.671875 14.328125 32 32 32h32c17.671875 0 32-14.324219 32-32v-16h128v16c0 17.671875 14.328125 32 32 32h32c17.671875 0 32-14.324219 32-32v-16h48c8.835938 0 16 7.164062 16 16v64h-448v-64c0-8.835938 7.164062-16 16-16zm416 400h-416c-8.835938 0-16-7.164062-16-16v-272h448v272c0 8.835938-7.164062 16-16 16zm0 0" fill="#3d9ae2"/><path d="m128 224c-26.507812 0-48 21.492188-48 48s21.492188 48 48 48 48-21.492188 48-48-21.492188-48-48-48zm0 64c-8.835938 0-16-7.164062-16-16s7.164062-16 16-16 16 7.164062 16 16-7.164062 16-16 16zm0 0" fill="#3d9ae2"/><path d="m384 224c-26.507812 0-48 21.492188-48 48s21.492188 48 48 48 48-21.492188 48-48-21.492188-48-48-48zm0 64c-8.835938 0-16-7.164062-16-16s7.164062-16 16-16 16 7.164062 16 16-7.164062 16-16 16zm0 0" fill="#3d9ae2"/><path d="m256 224c-26.507812 0-48 21.492188-48 48s21.492188 48 48 48 48-21.492188 48-48-21.492188-48-48-48zm0 64c-8.835938 0-16-7.164062-16-16s7.164062-16 16-16 16 7.164062 16 16-7.164062 16-16 16zm0 0" fill="#3d9ae2"/><path d="m128 352c-26.507812 0-48 21.492188-48 48s21.492188 48 48 48 48-21.492188 48-48-21.492188-48-48-48zm0 64c-8.835938 0-16-7.164062-16-16s7.164062-16 16-16 16 7.164062 16 16-7.164062 16-16 16zm0 0" fill="#3d9ae2"/><path d="m384 352c-26.507812 0-48 21.492188-48 48s21.492188 48 48 48 48-21.492188 48-48-21.492188-48-48-48zm0 64c-8.835938 0-16-7.164062-16-16s7.164062-16 16-16 16 7.164062 16 16-7.164062 16-16 16zm0 0" fill="#3d9ae2"/><path d="m256 352c-26.507812 0-48 21.492188-48 48s21.492188 48 48 48 48-21.492188 48-48-21.492188-48-48-48zm0 64c-8.835938 0-16-7.164062-16-16s7.164062-16 16-16 16 7.164062 16 16-7.164062 16-16 16zm0 0" fill="#3d9ae2"/></svg>