
<svg height="512pt" viewBox="0 -110 512.00016 512" width="512pt" xmlns="http://www.w3.org/2000/svg"><path d="m48.511719 274.894531h332.230469c4.664062.003907 9.105468-2.007812 12.175781-5.515625l99.042969-113.191406c5.34375-6.097656 5.34375-15.210938 0-21.3125l-99.042969-113.191406c-3.070313-3.507813-7.511719-5.515625-12.175781-5.511719h-332.230469c-17.863281 0-32.34375 14.476563-32.34375 32.339844v194.042969c.003906 17.859374 14.480469 32.339843 32.34375 32.339843zm0 0" fill="#bddbff"/><path d="m380.742188 291.0625h-332.230469c-26.792969 0-48.511719-21.71875-48.511719-48.511719v-194.039062c0-26.792969 21.71875-48.511719 48.511719-48.511719h332.230469c9.296874.0195312 18.132812 4.039062 24.257812 11.027344l99.039062 113.191406c10.613282 12.214844 10.613282 30.378906 0 42.59375l-99.058593 113.191406c-6.113281 6.996094-14.945313 11.027344-24.238281 11.058594zm0-258.722656h-332.230469c-8.933594 0-16.171875 7.238281-16.171875 16.171875v194.039062c0 8.933594 7.238281 16.171875 16.171875 16.171875h332.230469l99.042968-113.191406zm0 0" fill="#3d9ae2"/></svg>